<?xml version="1.0" encoding="UTF-8"?>
<svg id="Capa_1" data-name="Capa 1" xmlns="http://www.w3.org/2000/svg" viewBox="0 0 1050 896">
  <defs>
    <style>
      .cls-1 {
        fill: #050a13;
      }
    </style>
  </defs>
  <g>
    <path class="cls-1" d="M500.55,441.19c-24.4-12.86-54.9-4.31-69.11,19.33-11.45,19.05-9.33,42.35,3.39,58.86,3.52,4.57,10.54,4.13,13.43-.87l16.07-27.86c2.41-4.17,7.74-5.6,11.9-3.2,4.17,2.4,5.6,7.73,3.2,11.9l-16.07,27.86c-2.86,4.96,.2,11.28,5.87,12.04,20.39,2.75,41.36-6.76,52.28-25.69,14.76-25.6,5.43-58.48-20.96-72.38Z"/>
    <path class="cls-1" d="M462.24,174.66c-187.34,0-339.2,151.87-339.2,339.2s151.87,339.2,339.2,339.2,339.2-151.87,339.2-339.2S649.57,174.66,462.24,174.66Zm-28.08,536.72l-103.14,59.55c-15.98,9.23-35.96-2.31-35.96-20.76v-119.1c0-18.45,19.98-29.99,35.96-20.76l103.14,59.55c15.98,9.23,15.98,32.3,0,41.52Zm121.9-146.59c-3.07,5.32-6.17,10.56-9.31,15.73-6.09,10.02-7.51,22.2-3.88,33.36l3.92,12.03c11.43,35.04-26.38,65.7-58.31,47.29l-5.69-3.28-72.97-42.09-21.84-12.6-72.97-42.09-5.69-3.28c-31.93-18.41-24.31-66.5,11.74-74.15l12.38-2.63c11.48-2.44,21.31-9.76,26.93-20.06,2.9-5.3,5.88-10.62,8.95-15.94,80.16-138.97,186.94-227.52,238.51-197.78,51.57,29.74,28.39,166.52-51.76,305.49Z"/>
  </g>
  <g>
    <path class="cls-1" d="M365.06,105.91c-4.76-2.12-9.82-2.95-15.2-2.51-5.38,.44-12.2,1.57-20.44,3.38-5.9,1.41-10.59,2.34-14.07,2.78-3.49,.44-6.58,.22-9.27-.65-2.69-.88-4.51-2.7-5.45-5.47-.76-2.23-.79-4.44-.09-6.62,.7-2.18,2.24-4.25,4.61-6.2,2.37-1.95,5.61-3.63,9.72-5.03,5.53-1.89,10.44-1.89,14.72-.01,3.07,1.35,5.56,3.54,7.49,6.59,1.43,2.26,4.24,3.24,6.78,2.37l13.92-4.75c3.46-1.18,4.98-5.21,3.2-8.4-4.08-7.32-9.91-12.35-17.5-15.12-9.61-3.5-20.98-3.01-34.1,1.46-8.84,3.01-16.04,6.74-21.6,11.17-5.56,4.44-9.29,9.35-11.19,14.73-1.9,5.38-1.85,11.02,.16,16.91,2.74,8.03,6.73,13.45,11.96,16.25,5.24,2.8,10.72,3.97,16.44,3.51,5.72-.46,12.77-1.71,21.13-3.77,5.15-1.26,9.24-2.11,12.28-2.54,3.04-.44,5.73-.29,8.08,.46,2.35,.75,3.96,2.41,4.84,5,1.28,3.75,.66,7.27-1.85,10.57-2.51,3.3-6.67,5.94-12.47,7.91-5.36,1.83-10.07,1.96-14.13,.41-2.85-1.09-5.15-2.91-6.91-5.46-1.47-2.13-4.26-2.91-6.71-2.07l-13.85,4.72c-3.49,1.19-5.04,5.3-3.16,8.46,3.9,6.57,9.52,11.09,16.86,13.55,9.51,3.19,20.82,2.54,33.94-1.93,13.57-4.62,23.19-11.12,28.86-19.48,5.67-8.36,6.77-17.63,3.3-27.8-2.1-6.16-5.53-10.3-10.28-12.41Z"/>
    <path class="cls-1" d="M469.12,48.29c-.27-3.21-3.08-5.59-6.29-5.33l-26.61,2.2h0s-25.94,2.14-25.94,2.14h0l-26.76,2.21c-3.21,.27-5.59,3.08-5.33,6.29l.67,8.12c.27,3.21,3.08,5.59,6.29,5.33l20.95-1.73c3.21-.27,6.02,2.12,6.29,5.33l5.56,67.33c.27,3.21,3.08,5.6,6.29,5.33l14.32-1.18c3.21-.27,5.59-3.08,5.33-6.29l-5.56-67.33c-.27-3.21,2.12-6.02,5.33-6.29l20.8-1.72c3.21-.27,5.59-3.08,5.33-6.29l-.67-8.12Z"/>
    <path class="cls-1" d="M562.25,58.42c-6.2-4.74-14-7.88-23.4-9.42-9.49-1.55-17.94-1.07-25.32,1.45-7.39,2.52-13.46,6.9-18.21,13.15-4.75,6.25-7.9,14.12-9.45,23.61l-7.88,48.13c-.52,3.18,1.63,6.17,4.81,6.69l14.32,2.34c3.18,.52,6.17-1.63,6.69-4.81l1.36-8.32c.52-3.18,3.52-5.33,6.69-4.81l27.72,4.54c3.18,.52,5.33,3.52,4.81,6.69l-1.36,8.32c-.52,3.18,1.63,6.17,4.81,6.69l14.32,2.34c3.18,.52,6.17-1.63,6.69-4.81l7.88-48.13c1.55-9.49,1.08-17.96-1.43-25.39-2.51-7.43-6.87-13.52-13.07-18.26Zm-47.18,48.47c-3.18-.52-5.33-3.52-4.81-6.69l1.43-8.77c1.14-6.98,3.78-12.16,7.92-15.55,4.14-3.38,9.28-4.57,15.42-3.57,6.14,1.01,10.61,3.77,13.41,8.29,2.79,4.52,3.62,10.27,2.48,17.25l-1.43,8.77c-.52,3.18-3.52,5.33-6.69,4.81l-27.72-4.54Z"/>
    <path class="cls-1" d="M676.42,96.14l-43.89-21.27c-2.9-1.4-6.38-.19-7.79,2.7l-38.1,78.61c-1.4,2.9-.19,6.38,2.7,7.79l13.06,6.33c2.9,1.4,6.38,.19,7.79-2.7l5.03-10.38c1.4-2.9,4.89-4.11,7.79-2.7l8.94,4.33c1.72,.83,2.92,2.45,3.22,4.34l3.45,21.89c.3,1.89,1.5,3.51,3.22,4.34l10.83,5.25c4.27,2.07,9.1-1.56,8.29-6.24l-2.55-14.66c-.56-3.25,1.72-6.21,4.98-6.71,.02,0,.04,0,.06,0,5.55-.87,10.55-3.27,14.97-7.21,4.42-3.93,8.11-8.96,11.08-15.07,5.22-10.78,6.68-20.44,4.39-29-2.3-8.55-8.12-15.09-17.45-19.62Zm-10.49,37.2c-2.59,5.35-5.87,8.92-9.83,10.72-3.97,1.8-8.15,1.63-12.57-.51l-12.32-5.97c-2.9-1.4-4.11-4.89-2.7-7.79l11.63-24c1.4-2.9,4.89-4.11,7.79-2.7l12.32,5.97c4.41,2.14,7.13,5.34,8.15,9.61,1.02,4.27,.2,9.16-2.48,14.68Z"/>
    <path class="cls-1" d="M797.49,202.52l5.39-6.11c2.13-2.41,1.9-6.1-.52-8.23l-20.03-17.66h0l-19.52-17.22h0s-20.14-17.76-20.14-17.76c-2.41-2.13-6.1-1.9-8.23,.52l-5.39,6.11c-2.13,2.41-1.9,6.1,.52,8.23l15.76,13.9c2.41,2.13,2.65,5.81,.52,8.23l-44.69,50.66c-2.13,2.41-1.9,6.1,.52,8.23l10.78,9.5c2.41,2.13,6.1,1.9,8.23-.52l44.69-50.66c2.13-2.41,5.81-2.65,8.23-.52l15.65,13.81c2.41,2.13,6.1,1.9,8.23-.52Z"/>
    <path class="cls-1" d="M834.25,367.28c6.33-3.36,10.34-7.82,12.04-13.36,.24-.77,.42-1.55,.55-2.35,.58-3.56,4.2-5.92,7.65-4.87,.42,.13,.85,.24,1.28,.34,5.64,1.27,11.71,.19,18.21-3.27,7.16-3.8,11.41-9.32,12.75-16.55,1.34-7.23-.4-15.38-5.22-24.46l-13.41-25.23h0l-9.54-17.96c-1.51-2.84-5.04-3.92-7.88-2.41l-77.15,40.99c-2.84,1.51-3.92,5.04-2.41,7.88l9.54,17.96h0s13.8,25.98,13.8,25.98c5,9.41,11,15.64,18.02,18.7,7.01,3.05,14.27,2.59,21.77-1.39Zm30.76-56.07c1.77,3.33,2.29,6.37,1.55,9.11-.74,2.74-2.64,4.93-5.72,6.56-2.92,1.55-5.69,1.85-8.33,.9-2.64-.95-4.84-3.09-6.61-6.42l-10.54-19.84c-1.51-2.84-.43-6.37,2.41-7.88l8.82-4.68c2.84-1.51,6.37-.43,7.88,2.41l10.54,19.84Zm-54.18,30.07l-11.07-20.84c-1.51-2.84-.43-6.37,2.41-7.88l8.82-4.68c2.84-1.51,6.37-.43,7.88,2.41l11.07,20.84c1.9,3.58,2.55,6.81,1.95,9.7-.6,2.88-2.36,5.1-5.28,6.65-3.08,1.64-6.01,1.91-8.78,.82-2.77-1.09-5.11-3.43-7.01-7.01Z"/>
    <path class="cls-1" d="M919.29,420.7l-30.46-6.76c-4.7-1.04-6.18-7.02-2.51-10.14l23.85-20.23c1.69-1.43,2.42-3.69,1.89-5.84l-3.08-12.51c-1.06-4.3-6.33-5.9-9.59-2.91l-43.98,40.21c-.72,.66-1.59,1.13-2.54,1.36l-28.61,7.04c-3.13,.77-5.04,3.93-4.27,7.05l3.47,14.09c.77,3.13,3.93,5.04,7.05,4.27l28.6-7.04c.95-.23,1.94-.22,2.89,.03l57.63,15.32c4.28,1.14,8.22-2.73,7.16-7.03l-3.1-12.62c-.53-2.15-2.23-3.82-4.4-4.3Z"/>
  </g>
</svg>